<svg xmlns="http://www.w3.org/2000/svg" width="760" height="430" viewBox="0 0 760 430">
<rect width="100%" height="100%" fill="#ffffff"/>
<text x="380.0" y="24.0" font-size="16" text-anchor="middle" fill="#1f2937" >Search width -&gt; I/O reads/query</text>
<line x1="72" y1="358" x2="736" y2="358" stroke="#374151" stroke-width="1"/>
<line x1="72" y1="46" x2="72" y2="358" stroke="#374151" stroke-width="1"/>
<line x1="72" y1="46.0" x2="736" y2="46.0" stroke="#e5e7eb" stroke-width="1"/>
<text x="62.0" y="50.0" font-size="11" text-anchor="end" fill="#1f2937" >1484</text>
<line x1="72" y1="124.0" x2="736" y2="124.0" stroke="#e5e7eb" stroke-width="1"/>
<text x="62.0" y="128.0" font-size="11" text-anchor="end" fill="#1f2937" >1171</text>
<line x1="72" y1="202.0" x2="736" y2="202.0" stroke="#e5e7eb" stroke-width="1"/>
<text x="62.0" y="206.0" font-size="11" text-anchor="end" fill="#1f2937" >858</text>
<line x1="72" y1="280.0" x2="736" y2="280.0" stroke="#e5e7eb" stroke-width="1"/>
<text x="62.0" y="284.0" font-size="11" text-anchor="end" fill="#1f2937" >545</text>
<line x1="72" y1="358.0" x2="736" y2="358.0" stroke="#e5e7eb" stroke-width="1"/>
<text x="62.0" y="362.0" font-size="11" text-anchor="end" fill="#1f2937" >232</text>
<polyline points="72.0,336.5 182.7,298.0 293.3,255.3 455.9,188.6 736.0,67.5" fill="none" stroke="#2563eb" stroke-width="2.5" stroke-linejoin="round"/>
<circle cx="72.0" cy="336.5" r="4" fill="#2563eb"/>
<text x="72.0" y="327.5" font-size="10" text-anchor="middle" fill="#1f2937" >318</text>
<circle cx="182.7" cy="298.0" r="4" fill="#2563eb"/>
<text x="182.7" y="289.0" font-size="10" text-anchor="middle" fill="#1f2937" >473</text>
<circle cx="293.3" cy="255.3" r="4" fill="#2563eb"/>
<text x="293.3" y="246.3" font-size="10" text-anchor="middle" fill="#1f2937" >644</text>
<circle cx="455.9" cy="188.6" r="4" fill="#2563eb"/>
<text x="455.9" y="179.6" font-size="10" text-anchor="middle" fill="#1f2937" >912</text>
<circle cx="736.0" cy="67.5" r="4" fill="#2563eb"/>
<text x="736.0" y="58.5" font-size="10" text-anchor="middle" fill="#1f2937" >1398</text>
<text x="72.0" y="380.0" font-size="11" text-anchor="middle" fill="#1f2937" >128</text>
<text x="182.7" y="380.0" font-size="11" text-anchor="middle" fill="#1f2937" >192</text>
<text x="293.3" y="380.0" font-size="11" text-anchor="middle" fill="#1f2937" >256</text>
<text x="455.9" y="380.0" font-size="11" text-anchor="middle" fill="#1f2937" >350</text>
<text x="736.0" y="380.0" font-size="11" text-anchor="middle" fill="#1f2937" >512</text>
<text x="404.0" y="412.0" font-size="12" text-anchor="middle" fill="#1f2937" >Search width</text>
<text x="18.0" y="202.0" font-size="12" text-anchor="middle" fill="#1f2937" transform="rotate(-90 18 202)">reads/query</text>
</svg>
